<svg width="1202" height="100" viewBox="0 0 1202 100" fill="none" xmlns="http://www.w3.org/2000/svg">
<path fill-rule="evenodd" clip-rule="evenodd" d="M1184.51 93.464C1186.04 95 1187.92 95.768 1190.14 95.768C1192.27 95.768 1194.06 95 1195.51 93.464C1197.05 91.928 1197.82 90.0507 1197.82 87.832C1197.82 85.6133 1197.05 83.736 1195.51 82.2C1194.06 80.664 1192.27 79.896 1190.14 79.896C1187.92 79.896 1186.04 80.664 1184.51 82.2C1182.97 83.736 1182.2 85.6133 1182.2 87.832C1182.2 90.0507 1182.97 91.928 1184.51 93.464ZM1190.14 99.768C1186.88 99.768 1183.98 98.5964 1181.68 96.2924C1179.37 93.9885 1178.2 91.0861 1178.2 87.832C1178.2 84.5779 1179.37 81.6755 1181.68 79.3716C1183.98 77.0676 1186.88 75.896 1190.14 75.896C1193.34 75.896 1196.17 77.094 1198.38 79.411C1200.66 81.7086 1201.82 84.5964 1201.82 87.832C1201.82 91.0677 1200.66 93.9556 1198.38 96.2533C1196.17 98.5702 1193.34 99.768 1190.14 99.768Z" fill="black"/>
<path fill-rule="evenodd" clip-rule="evenodd" d="M1105.48 96.4902L1105.44 96.4725L1105.4 96.4539C1100.24 94.0679 1096.05 90.7517 1092.95 86.4592L1092.94 86.4416L1092.93 86.4238C1089.79 81.9747 1088.2 76.877 1088.1 71.2622L1088.03 67.192H1108.13L1108.5 70.7859C1108.83 74.0209 1110.1 76.6743 1112.38 78.9049C1114.47 80.7975 1117.79 82.04 1122.95 82.04C1127.85 82.04 1131.17 80.8389 1133.39 78.9185C1135.74 76.8749 1136.87 74.4003 1136.87 71.192C1136.87 68.546 1136.16 66.7768 1135.05 65.5145C1133.62 63.8886 1131.81 62.6218 1129.55 61.7296C1126.93 60.7002 1123.3 59.5517 1118.6 58.2909C1112.62 56.7302 1107.67 55.1368 1103.84 53.4926L1103.82 53.4856L1103.8 53.4786C1099.66 51.6582 1096.12 48.8405 1093.19 45.1266L1093.15 45.0812L1093.12 45.0348C1089.98 40.8171 1088.61 35.455 1088.61 29.336C1088.61 23.7562 1090.04 18.6684 1092.99 14.2067C1095.91 9.77568 1099.96 6.40448 1105.02 4.07215L1105.03 4.06611L1105.04 4.06017C1110.16 1.74109 1115.9 0.631989 1122.18 0.631989C1131.21 0.631989 1138.98 2.89925 1145.13 7.7538C1151.38 12.6228 1154.94 19.1756 1155.73 27.1508L1156.16 31.544H1135.42L1134.98 28.0401C1134.7 25.8347 1133.56 23.7268 1131.05 21.691L1131.03 21.6707L1131 21.6501C1128.74 19.7533 1125.55 18.616 1121.03 18.616C1116.89 18.616 1113.89 19.6899 1111.69 21.5289L1111.66 21.5501L1111.63 21.571C1109.65 23.1694 1108.52 25.4401 1108.52 28.952C1108.52 31.3979 1109.17 33.0388 1110.19 34.2206C1111.64 35.7944 1113.38 37.022 1115.47 37.9066C1118.04 38.8658 1121.68 40.0146 1126.45 41.3534C1132.42 42.9974 1137.36 44.6767 1141.2 46.4104C1145.44 48.2344 1149.03 51.1036 1151.96 54.9119C1155.24 59.0755 1156.64 64.4835 1156.64 70.68C1156.64 75.7787 1155.28 80.5832 1152.62 85.026C1149.89 89.5772 1145.89 93.1678 1140.82 95.8488C1135.61 98.5978 1129.61 99.896 1122.95 99.896C1116.59 99.896 1110.75 98.7889 1105.48 96.4902ZM1148.8 57.368C1146.24 54.04 1143.17 51.608 1139.59 50.072C1136 48.4507 1131.27 46.8293 1125.38 45.208C1120.52 43.8427 1116.72 42.648 1113.99 41.624C1111.34 40.5147 1109.08 38.936 1107.2 36.888C1105.41 34.84 1104.52 32.1947 1104.52 28.952C1104.52 24.4293 1106.05 20.9307 1109.12 18.456C1112.2 15.896 1116.16 14.616 1121.03 14.616C1126.23 14.616 1130.42 15.9387 1133.57 18.584C1136.73 21.144 1138.52 24.1307 1138.95 27.544H1151.75C1151.61 26.1556 1151.38 24.8222 1151.05 23.544C1149.75 18.4587 1146.96 14.2454 1142.66 10.904C1137.37 6.72266 1130.54 4.63199 1122.18 4.63199C1116.38 4.63199 1111.22 5.65599 1106.69 7.70399C1102.26 9.75199 1098.8 12.6533 1096.32 16.408C1093.85 20.1627 1092.61 24.472 1092.61 29.336C1092.61 34.8827 1093.85 39.32 1096.32 42.648C1098.88 45.8907 1101.91 48.28 1105.41 49.816C1109 51.352 1113.73 52.888 1119.62 54.424C1124.4 55.704 1128.2 56.8987 1131.01 58.008C1133.83 59.1173 1136.18 60.7387 1138.05 62.872C1139.93 65.0053 1140.87 67.7787 1140.87 71.192C1140.87 75.544 1139.25 79.128 1136 81.944C1132.85 84.6747 1128.5 86.04 1122.95 86.04C1117.15 86.04 1112.71 84.632 1109.64 81.816C1106.65 78.9147 1104.94 75.3733 1104.52 71.192H1092.1C1092.13 72.5698 1092.25 73.9032 1092.48 75.192C1093.06 78.4529 1094.3 81.4289 1096.2 84.12C1098.84 87.7893 1102.47 90.6907 1107.08 92.824C1111.77 94.872 1117.06 95.896 1122.95 95.896C1129.09 95.896 1134.43 94.7013 1138.95 92.312C1143.47 89.9227 1146.88 86.808 1149.19 82.968C1151.49 79.128 1152.64 75.032 1152.64 70.68C1152.64 65.048 1151.36 60.6107 1148.8 57.368Z" fill="black"/>
<path fill-rule="evenodd" clip-rule="evenodd" d="M975.458 75.8624L975.443 75.837C971.155 68.1918 969.044 59.6575 969.044 50.328C969.044 40.9991 971.155 32.499 975.454 24.9287L975.458 24.9218L975.462 24.9149C979.817 17.3165 985.743 11.375 993.211 7.17083C1000.67 2.8849 1008.91 0.759995 1017.84 0.759995C1026.85 0.759995 1035.14 2.88138 1042.61 7.17096C1050.07 11.3723 1055.96 17.2719 1060.23 24.8007C1064.54 32.3769 1066.64 40.9212 1066.64 50.328C1066.64 59.7348 1064.54 68.2791 1060.23 75.8553C1055.96 83.3822 1050.07 89.3188 1042.62 93.6036L1042.61 93.613L1042.59 93.6223C1035.12 97.8219 1026.85 99.896 1017.84 99.896C1008.92 99.896 1000.69 97.8184 993.227 93.6223L993.21 93.613L993.194 93.6036C985.75 89.3232 979.83 83.3969 975.472 75.8875L975.458 75.8624ZM1040.63 10.648C1033.8 6.72266 1026.21 4.75999 1017.84 4.75999C1009.57 4.75999 1002.01 6.72266 995.188 10.648C988.361 14.488 982.943 19.9067 978.932 26.904C975.007 33.816 973.044 41.624 973.044 50.328C973.044 59.032 975.007 66.8827 978.932 73.88C982.943 80.792 988.361 86.2107 995.188 90.136C1002.01 93.976 1009.57 95.896 1017.84 95.896C1026.21 95.896 1033.8 93.976 1040.63 90.136C1047.45 86.2107 1052.83 80.792 1056.76 73.88C1060.68 66.968 1062.64 59.1173 1062.64 50.328C1062.64 41.5387 1060.68 33.688 1056.76 26.776C1052.83 19.864 1047.45 14.488 1040.63 10.648ZM1032.6 77.9737L1032.61 77.9663C1036.96 75.4613 1040.36 71.895 1042.84 67.16L1042.86 67.138L1042.87 67.1163C1045.41 62.4109 1046.74 56.8538 1046.74 50.328C1046.74 43.706 1045.4 38.1628 1042.88 33.5633L1042.86 33.5298L1042.84 33.496C1040.36 28.7433 1036.98 25.1751 1032.72 22.6748C1028.44 20.1686 1023.52 18.872 1017.84 18.872C1012.17 18.872 1007.25 20.1686 1002.97 22.6748C998.696 25.1805 995.272 28.7614 992.695 33.5334C990.247 38.1395 988.948 43.6944 988.948 50.328C988.948 56.8627 990.242 62.4289 992.704 67.139C995.278 71.8982 998.695 75.4714 1002.96 77.9739C1007.34 80.495 1012.27 81.784 1017.84 81.784C1023.43 81.784 1028.31 80.4923 1032.59 77.9812L1032.6 77.9737ZM1000.95 81.432C995.999 78.5307 992.073 74.392 989.172 69.016C986.356 63.64 984.948 57.4107 984.948 50.328C984.948 43.16 986.356 36.9307 989.172 31.64C992.073 26.264 995.999 22.1253 1000.95 19.224C1005.9 16.3227 1011.53 14.872 1017.84 14.872C1024.16 14.872 1029.79 16.3227 1034.74 19.224C1039.69 22.1253 1043.57 26.264 1046.39 31.64C1049.29 36.9307 1050.74 43.16 1050.74 50.328C1050.74 57.4107 1049.29 63.64 1046.39 69.016C1043.57 74.392 1039.65 78.5307 1034.61 81.432C1029.66 84.3333 1024.07 85.784 1017.84 85.784C1011.61 85.784 1005.98 84.3333 1000.95 81.432Z" fill="black"/>
<path fill-rule="evenodd" clip-rule="evenodd" d="M944.904 1.784V99H925.256V1.784H944.904ZM940.904 5.784H929.256V95H940.904V5.784Z" fill="black"/>
<path fill-rule="evenodd" clip-rule="evenodd" d="M876.888 93.334L876.88 93.3383C869.133 97.1648 860.095 99 849.892 99H818.116V1.784H849.892C860.111 1.784 869.166 3.71059 876.924 7.72384C884.763 11.6496 890.82 17.3571 894.977 24.8129C899.211 32.2527 901.252 40.8897 901.252 50.584C901.252 60.2822 899.209 68.9225 894.972 76.3644C890.806 83.7462 884.739 89.4088 876.897 93.3297L876.888 93.334ZM891.492 74.392C895.332 67.6507 897.252 59.7147 897.252 50.584C897.252 41.4533 895.332 33.5173 891.492 26.776C887.737 20.0347 882.276 14.872 875.108 11.288C868.025 7.61866 859.62 5.784 849.892 5.784H822.116V95H849.892C859.62 95 868.025 93.2507 875.108 89.752C882.276 86.168 887.737 81.048 891.492 74.392ZM873.274 27.3989L873.265 27.3889C868.175 22.1563 860.602 19.256 849.892 19.256H837.764V81.4H849.892C860.72 81.4 868.342 78.5662 873.421 73.494C878.547 68.2902 881.348 60.838 881.348 50.584C881.348 40.2465 878.506 32.7028 873.284 27.4089L873.274 27.3989ZM876.26 76.312C870.201 82.3707 861.412 85.4 849.892 85.4H833.764V15.256H849.892C861.327 15.256 870.073 18.3707 876.132 24.6C882.276 30.8293 885.348 39.4907 885.348 50.584C885.348 61.592 882.319 70.168 876.26 76.312Z" fill="black"/>
<path fill-rule="evenodd" clip-rule="evenodd" d="M734.493 1.784V62.232C734.493 69.5824 736.271 74.2471 739.066 77.0523C742.062 79.9742 746.37 81.656 752.509 81.656C758.562 81.656 762.772 79.976 765.681 77.0676L765.696 77.052L765.712 77.0367C768.581 74.2301 770.397 69.5739 770.397 62.232V1.784H790.045V62.104C790.045 70.0595 788.443 77.0673 785.02 82.9355L785.013 82.9482L785.005 82.9608C781.632 88.6468 777 92.9531 771.156 95.7803C765.51 98.5527 759.225 99.896 752.381 99.896C745.531 99.896 739.209 98.5502 733.488 95.7854L733.476 95.7796L733.465 95.7738C727.701 92.9411 723.122 88.6329 719.757 82.9608L719.737 82.9266L719.717 82.892C716.397 77.0329 714.845 70.0414 714.845 62.104V1.784H734.493ZM769.405 92.184C774.525 89.7093 778.578 85.9547 781.565 80.92C784.552 75.8 786.045 69.528 786.045 62.104V5.784H774.397V62.232C774.397 70.168 772.434 76.056 768.509 79.896C764.669 83.736 759.336 85.656 752.509 85.656C745.597 85.656 740.178 83.736 736.253 79.896C732.413 76.056 730.493 70.168 730.493 62.232V5.784H718.845V62.104C718.845 69.528 720.296 75.8 723.197 80.92C726.184 85.9547 730.194 89.7093 735.229 92.184C740.349 94.6587 746.066 95.896 752.381 95.896C758.696 95.896 764.37 94.6587 769.405 92.184Z" fill="black"/>
<path fill-rule="evenodd" clip-rule="evenodd" d="M692.123 1.784V19.256H667.803V99H648.155V19.256H623.707V1.784H692.123ZM652.155 15.256V95H663.803V15.256H688.123V5.784H627.707V15.256H652.155Z" fill="black"/>
<path fill-rule="evenodd" clip-rule="evenodd" d="M552.262 96.4902L552.222 96.4725L552.181 96.4539C547.028 94.0679 542.832 90.7517 539.737 86.4592L539.725 86.4416L539.712 86.4238C536.577 81.9747 534.985 76.877 534.887 71.2622L534.815 67.192H554.915L555.281 70.7859C555.611 74.0209 556.888 76.6743 559.166 78.9049C561.256 80.7975 564.572 82.04 569.734 82.04C574.64 82.04 577.953 80.8389 580.173 78.9185C582.524 76.8749 583.654 74.4003 583.654 71.192C583.654 68.546 582.946 66.7768 581.835 65.5145C580.404 63.8886 578.597 62.6218 576.332 61.7296C573.719 60.7002 570.089 59.5517 565.383 58.2909C559.402 56.7302 554.459 55.1368 550.622 53.4926L550.606 53.4856L550.59 53.4786C546.444 51.6582 542.903 48.8405 539.97 45.1266L539.935 45.0812L539.9 45.0348C536.764 40.8171 535.398 35.455 535.398 29.336C535.398 23.7562 536.829 18.6684 539.77 14.2067C542.691 9.77568 546.748 6.40448 551.802 4.07215L551.815 4.06611L551.828 4.06017C556.949 1.74109 562.689 0.631989 568.966 0.631989C578.002 0.631989 585.764 2.90025 591.915 7.75702C598.168 12.6256 601.727 19.1775 602.515 27.1508L602.948 31.544H582.203L581.765 28.0401C581.489 25.8347 580.35 23.7268 577.839 21.691L577.814 21.6707L577.789 21.6501C575.525 19.7533 572.334 18.616 567.814 18.616C563.676 18.616 560.677 19.6899 558.471 21.5289L558.445 21.5501L558.419 21.571C556.435 23.1694 555.302 25.4401 555.302 28.952C555.302 31.3979 555.952 33.0388 556.971 34.2206C558.423 35.7943 560.168 37.0218 562.253 37.9064C564.822 38.8659 568.467 40.015 573.238 41.3543C579.207 42.9983 584.147 44.6777 587.987 46.4115C592.224 48.235 595.812 51.1026 598.744 54.9083C602.023 59.0724 603.43 64.4817 603.43 70.68C603.43 75.7787 602.07 80.5832 599.404 85.026C596.673 89.5772 592.677 93.1678 587.602 95.8488C582.399 98.5978 576.399 99.896 569.734 99.896C563.377 99.896 557.53 98.7889 552.262 96.4902ZM595.59 57.368C593.03 54.04 589.958 51.608 586.374 50.072C582.79 48.4507 578.054 46.8293 572.166 45.208C567.302 43.8427 563.505 42.648 560.774 41.624C558.129 40.5147 555.867 38.936 553.99 36.888C552.198 34.84 551.302 32.1947 551.302 28.952C551.302 24.4293 552.838 20.9307 555.91 18.456C558.982 15.896 562.95 14.616 567.814 14.616C573.019 14.616 577.201 15.9387 580.358 18.584C583.515 21.144 585.307 24.1307 585.734 27.544H598.534C598.397 26.1556 598.165 24.8222 597.839 23.544C596.54 18.4587 593.742 14.2454 589.446 10.904C584.155 6.72266 577.329 4.63199 568.966 4.63199C563.163 4.63199 558.001 5.65599 553.478 7.70399C549.041 9.75199 545.585 12.6533 543.11 16.408C540.635 20.1627 539.398 24.472 539.398 29.336C539.398 34.8827 540.635 39.32 543.11 42.648C545.67 45.8907 548.699 48.28 552.198 49.816C555.782 51.352 560.518 52.888 566.406 54.424C571.185 55.704 574.982 56.8987 577.798 58.008C580.614 59.1173 582.961 60.7387 584.838 62.872C586.715 65.0053 587.654 67.7787 587.654 71.192C587.654 75.544 586.033 79.128 582.79 81.944C579.633 84.6747 575.281 86.04 569.734 86.04C563.931 86.04 559.494 84.632 556.422 81.816C553.435 78.9147 551.729 75.3733 551.302 71.192H538.886C538.91 72.5698 539.037 73.9032 539.267 75.192C539.848 78.4529 541.086 81.4289 542.982 84.12C545.627 87.7893 549.254 90.6907 553.862 92.824C558.555 94.872 563.846 95.896 569.734 95.896C575.878 95.896 581.211 94.7013 585.734 92.312C590.257 89.9227 593.67 86.808 595.974 82.968C598.278 79.128 599.43 75.032 599.43 70.68C599.43 65.048 598.15 60.6107 595.59 57.368Z" fill="black"/>
<path fill-rule="evenodd" clip-rule="evenodd" d="M447.695 95L440.527 75.16H401.615L394.447 95H382.159L414.415 6.29599H427.855L459.983 95H447.695ZM404.423 79.16L397.255 99H376.448L411.613 2.29599H430.661L465.686 99H444.887L437.719 79.16H404.423ZM421.071 20.632L404.943 65.688H437.199L421.071 20.632ZM421.071 32.5009L410.623 61.688H431.519L421.071 32.5009Z" fill="black"/>
<path fill-rule="evenodd" clip-rule="evenodd" d="M360.813 1.784V19.256H336.493V99H316.845V19.256H292.397V1.784H360.813ZM320.845 15.256V95H332.493V15.256H356.813V5.784H296.397V15.256H320.845Z" fill="black"/>
<path fill-rule="evenodd" clip-rule="evenodd" d="M267.796 41.08V58.68H235.284V81.4H271.636V99H215.636V1.65601H271.636V19.256H235.284V41.08H267.796ZM231.284 15.256H267.636V5.65601H219.636V95H267.636V85.4H231.284V54.68H263.796V45.08H231.284V15.256Z" fill="black"/>
<path fill-rule="evenodd" clip-rule="evenodd" d="M169.798 99L148.55 62.52H140.769V99H121.121V1.784H153.921C161.093 1.784 167.415 3.00635 172.72 5.65543C178.004 8.25163 182.135 11.8652 184.891 16.5592C187.592 21.1621 188.897 26.3551 188.897 32.024C188.897 38.9994 186.844 45.2732 182.714 50.6893C179.504 54.9875 175.113 58.0599 169.751 60.0241L193.11 99H169.798ZM163.649 57.624C165.054 57.3193 166.389 56.9524 167.653 56.5234C172.76 54.79 176.716 52.0422 179.521 48.28C183.105 43.5867 184.897 38.168 184.897 32.024C184.897 26.9893 183.745 22.5093 181.441 18.584C179.137 14.6587 175.638 11.544 170.945 9.24C166.337 6.936 160.662 5.784 153.921 5.784H125.121V95H136.769V58.52H150.849L172.097 95H186.049L163.649 57.624ZM165.402 22.6628L165.382 22.6441C163.357 20.7309 159.813 19.384 153.921 19.384H140.769V45.176H153.921C159.629 45.176 163.179 43.7911 165.32 41.7201C167.591 39.4391 168.865 36.3461 168.865 32.024C168.865 27.5713 167.569 24.6536 165.422 22.6813L165.402 22.6628ZM168.129 44.568C164.972 47.64 160.236 49.176 153.921 49.176H136.769V15.384H153.921C160.321 15.384 165.057 16.8347 168.129 19.736C171.286 22.6373 172.865 26.7333 172.865 32.024C172.865 37.2293 171.286 41.4107 168.129 44.568Z" fill="black"/>
<path fill-rule="evenodd" clip-rule="evenodd" d="M73.9127 35.64L72.8275 33.3574C70.6722 28.8238 67.6111 25.4266 63.63 23.038L63.6073 23.0243L63.5847 23.0104C59.6021 20.5484 54.8887 19.256 49.304 19.256C43.7235 19.256 38.7888 20.5476 34.4052 23.0737L34.3957 23.0792L34.3861 23.0846C30.1392 25.501 26.7293 29.0243 24.1577 33.7854C21.701 38.4054 20.408 43.8807 20.408 50.328C20.408 56.7698 21.6988 62.2412 24.1514 66.8587C26.7155 71.5261 30.1264 75.0655 34.3961 77.5768C38.7781 80.0196 43.7172 81.272 49.304 81.272C57.1477 81.272 63.3009 78.9556 68.0931 74.5265C71.9789 70.935 74.6406 66.2693 75.9688 60.344H41.08V42.872H97.08V56.0176L97.0628 56.2025C96.3218 64.1686 93.8112 71.5224 89.5388 78.2096L89.532 78.2203L89.525 78.231C85.2402 84.8446 79.5924 90.1135 72.6344 94.01L72.6166 94.02L72.5987 94.0298C65.5658 97.8745 57.7726 99.768 49.304 99.768C40.3802 99.768 32.1467 97.6904 24.687 93.4943L24.6705 93.485L24.6541 93.4756C17.2099 89.1952 11.2896 83.2689 6.93227 75.7595L6.92295 75.7434L6.91378 75.7273C2.61459 68.157 0.504028 59.6569 0.504028 50.328C0.504028 40.9991 2.61459 32.499 6.91378 24.9287L6.91771 24.9218L6.92166 24.9149C11.2768 17.3166 17.2034 11.3751 24.6705 7.17095C32.131 2.88503 40.3707 0.759995 49.304 0.759995C59.4659 0.759995 68.5953 3.28747 76.5557 8.4357C84.6416 13.6094 90.5011 20.9107 94.1187 30.1866L96.2455 35.64H73.9127ZM74.392 11.8C67.1387 7.10666 58.776 4.75999 49.304 4.75999C41.0267 4.75999 33.4747 6.72266 26.648 10.648C19.8214 14.488 14.4027 19.9067 10.392 26.904C6.4667 33.816 4.50403 41.624 4.50403 50.328C4.50403 59.032 6.4667 66.84 10.392 73.752C14.4027 80.664 19.8214 86.0827 26.648 90.008C33.4747 93.848 41.0267 95.768 49.304 95.768C57.1547 95.768 64.28 94.0187 70.68 90.52C77.08 86.936 82.2427 82.1147 86.168 76.056C90.0934 69.912 92.3974 63.1707 93.08 55.832V46.872H45.08V56.344H80.664C80.5183 57.7215 80.3161 59.0549 80.0573 60.344C78.6489 67.36 75.5658 73.0666 70.808 77.464C65.176 82.6693 58.008 85.272 49.304 85.272C43.0747 85.272 37.4427 83.864 32.408 81.048C27.4587 78.1467 23.5334 74.0507 20.632 68.76C17.816 63.4693 16.408 57.3253 16.408 50.328C16.408 43.3307 17.816 37.1867 20.632 31.896C23.5334 26.52 27.4587 22.424 32.408 19.608C37.4427 16.7067 43.0747 15.256 49.304 15.256C55.5334 15.256 60.9947 16.7067 65.688 19.608C70.3814 22.424 73.9654 26.4347 76.44 31.64H90.392C89.8523 30.2562 89.2599 28.9228 88.6148 27.64C85.2815 21.0122 80.5406 15.7322 74.392 11.8Z" fill="black"/>
</svg>
