<?xml version="1.0" encoding="UTF-8"?>
<svg id="Layer_1" data-name="Layer 1" xmlns="http://www.w3.org/2000/svg" version="1.1" viewBox="0 0 500.87 500.87">
  <defs>
    <style>
      .cls-1 {
        font-size: 62px;
      }

      .cls-1, .cls-2, .cls-3, .cls-4 {
        fill: #000;
      }

      .cls-1, .cls-4 {
        font-family: Poppins-Bold, Poppins;
        font-weight: 700;
      }

      .cls-5 {
        fill: #ff2e82;
      }

      .cls-5, .cls-6, .cls-7, .cls-8, .cls-9, .cls-2, .cls-10, .cls-11, .cls-12 {
        stroke: #fff;
        stroke-miterlimit: 10;
      }

      .cls-5, .cls-9, .cls-10, .cls-12 {
        stroke-width: 1.3px;
      }

      .cls-6 {
        fill: #b0f;
      }

      .cls-7 {
        fill: gray;
      }

      .cls-8 {
        fill: #b93100;
      }

      .cls-9 {
        fill: #00d00e;
      }

      .cls-3, .cls-13 {
        stroke-width: 0px;
      }

      .cls-10 {
        fill: #e7e600;
      }

      .cls-11 {
        stroke-width: 1.1px;
      }

      .cls-11, .cls-13 {
        fill: #fff;
      }

      .cls-12 {
        fill: #1800d0;
      }

      .cls-4 {
        font-size: 153px;
      }
    </style>
  </defs>
  <g>
    <rect class="cls-13" x="4" y="4" width="492.87" height="492.87" rx="12.37" ry="12.37"/>
    <path class="cls-3" d="M484.5,8c4.61,0,8.37,3.75,8.37,8.37v468.13c0,4.61-3.75,8.37-8.37,8.37H16.37c-4.61,0-8.37-3.75-8.37-8.37V16.37c0-4.61,3.75-8.37,8.37-8.37h468.13M484.5,0H16.37C7.37,0,0,7.37,0,16.37v468.13c0,9,7.37,16.37,16.37,16.37h468.13c9,0,16.37-7.37,16.37-16.37V16.37c0-9-7.37-16.37-16.37-16.37h0Z"/>
  </g>
  <path class="cls-2" d="M197.92,342.21h90.69s.06-24.08,22.04-21.61c0,0,14.82,1.56,16.3,6.01s3.62,12.35,3.62,12.35v.92s16.48,9.61,16.94,18.98c0,0,9.43,45.04,5.66,84.16,0,0-8.92,28.65-33.29,14.24,0,0-9.95-7.21-21.28-32.43l-1.83-1.79s-23.95,20.45-39.58-6.05l-26.86-.85s-13.84,28.93-39.56,8.76c0,0-9.69,9.35-18.64,28.06s-31.27,2.94-31.27,2.94c0,0-4.94-4.01-5.88-7.62s-2.81-18.04-2.54-21.91,2-66.15,7.35-69.42c0,0,3.61-10.22,14.7-16.1l1.87-1.6s.27-7.35,3.07-12.16,13.9-5.88,13.9-5.88c0,0,9.89-1.2,13.76,1.6s6.68,5.48,7.22,7.48,3.61,7.22,2.41,12.16l1.2-.24Z"/>
  <polygon class="cls-7" points="171.81 364.66 165.27 358.52 165.27 348.98 178.08 348.98 178.08 358.12 171.81 364.66"/>
  <rect class="cls-8" x="214.07" y="365.75" width="12.41" height="7.5"/>
  <polygon class="cls-6" points="258.78 373.25 258.78 365.75 269.69 370.25 258.78 373.25"/>
  <circle class="cls-11" cx="207.02" cy="409.06" r="15.17"/>
  <circle class="cls-11" cx="278.52" cy="409.06" r="15.17"/>
  <circle class="cls-9" cx="294.27" cy="369.5" r="7.83"/>
  <circle class="cls-10" cx="314.08" cy="352.4" r="7.83"/>
  <circle class="cls-12" cx="314.08" cy="386.8" r="7.83"/>
  <circle class="cls-5" cx="334.37" cy="369.5" r="7.83"/>
  <polygon class="cls-7" points="175.17 368.22 181.31 361.67 190.85 361.67 190.85 374.49 181.71 374.49 175.17 368.22"/>
  <polygon class="cls-7" points="171.54 372.53 178.08 378.67 178.08 388.21 165.27 388.21 165.27 379.08 171.54 372.53"/>
  <polygon class="cls-7" points="168.82 367.94 162.69 374.49 153.14 374.49 153.14 361.67 162.28 361.67 168.82 367.94"/>
  <text class="cls-4" transform="translate(210.41 154.35)"><tspan x="0" y="0">1</tspan></text>
  <text/>
  <text class="cls-1" transform="translate(94.3 259.71)"><tspan x="0" y="0" xml:space="preserve">   PLAYER</tspan></text>
</svg>