<?xml version="1.0" encoding="UTF-8"?>
<svg id="Layer_1" data-name="Layer 1" xmlns="http://www.w3.org/2000/svg" version="1.1" viewBox="0 0 500.87 500.87">
  <defs>
    <style>
      .cls-1 {
        font-size: 62px;
      }

      .cls-1, .cls-2, .cls-3, .cls-4 {
        fill: #000;
      }

      .cls-1, .cls-4 {
        font-family: Poppins-Bold, Poppins;
        font-weight: 700;
      }

      .cls-5 {
        fill: #ff2e82;
      }

      .cls-5, .cls-6, .cls-7, .cls-8, .cls-9, .cls-2, .cls-10, .cls-11, .cls-12 {
        stroke: #fff;
        stroke-miterlimit: 10;
      }

      .cls-5, .cls-9, .cls-10, .cls-12 {
        stroke-width: 1.3px;
      }

      .cls-6 {
        fill: #b0f;
      }

      .cls-7 {
        fill: gray;
      }

      .cls-8 {
        fill: #b93100;
      }

      .cls-9 {
        fill: #00d00e;
      }

      .cls-3, .cls-13 {
        stroke-width: 0px;
      }

      .cls-10 {
        fill: #e7e600;
      }

      .cls-11 {
        stroke-width: 1.1px;
      }

      .cls-11, .cls-13 {
        fill: #fff;
      }

      .cls-12 {
        fill: #1800d0;
      }

      .cls-4 {
        font-size: 153px;
      }
    </style>
  </defs>
  <g>
    <rect class="cls-13" x="4" y="4" width="492.87" height="492.87" rx="12.37" ry="12.37"/>
    <path class="cls-3" d="M484.5,8c4.61,0,8.37,3.75,8.37,8.37v468.13c0,4.61-3.75,8.37-8.37,8.37H16.37c-4.61,0-8.37-3.75-8.37-8.37V16.37c0-4.61,3.75-8.37,8.37-8.37h468.13M484.5,0H16.37C7.37,0,0,7.37,0,16.37v468.13c0,9,7.37,16.37,16.37,16.37h468.13c9,0,16.37-7.37,16.37-16.37V16.37c0-9-7.37-16.37-16.37-16.37h0Z"/>
  </g>
  <path class="cls-2" d="M85.2,339.59h90.69s.06-24.08,22.04-21.61c0,0,14.82,1.56,16.3,6.01s3.62,12.35,3.62,12.35v.92s16.48,9.61,16.94,18.98c0,0,9.43,45.04,5.66,84.16,0,0-8.92,28.65-33.29,14.24,0,0-9.95-7.21-21.28-32.43l-1.83-1.79s-23.95,20.45-39.58-6.05l-26.86-.85s-13.84,28.93-39.56,8.76c0,0-9.69,9.35-18.64,28.06s-31.27,2.94-31.27,2.94c0,0-4.94-4.01-5.88-7.62s-2.81-18.04-2.54-21.91,2-66.15,7.35-69.42c0,0,3.61-10.22,14.7-16.1l1.87-1.6s.27-7.35,3.07-12.16,13.9-5.88,13.9-5.88c0,0,9.89-1.2,13.76,1.6s6.68,5.48,7.22,7.48,3.61,7.22,2.41,12.16l1.2-.24Z"/>
  <polygon class="cls-7" points="59.08 362.04 52.54 355.9 52.54 346.36 65.36 346.36 65.36 355.49 59.08 362.04"/>
  <rect class="cls-8" x="101.34" y="363.13" width="12.41" height="7.5"/>
  <polygon class="cls-6" points="146.06 370.63 146.06 363.13 156.96 367.63 146.06 370.63"/>
  <circle class="cls-11" cx="94.3" cy="406.43" r="15.17"/>
  <circle class="cls-11" cx="165.8" cy="406.43" r="15.17"/>
  <circle class="cls-9" cx="181.54" cy="366.88" r="7.83"/>
  <circle class="cls-10" cx="201.35" cy="349.78" r="7.83"/>
  <circle class="cls-12" cx="201.35" cy="384.18" r="7.83"/>
  <circle class="cls-5" cx="221.65" cy="366.88" r="7.83"/>
  <polygon class="cls-7" points="62.45 365.59 68.58 359.05 78.12 359.05 78.12 371.86 68.99 371.86 62.45 365.59"/>
  <polygon class="cls-7" points="58.81 369.91 65.36 376.05 65.36 385.59 52.54 385.59 52.54 376.46 58.81 369.91"/>
  <polygon class="cls-7" points="56.09 365.32 49.96 371.86 40.42 371.86 40.42 359.05 49.55 359.05 56.09 365.32"/>
  <path class="cls-2" d="M325.5,342.21h90.69s.06-24.08,22.04-21.61c0,0,14.82,1.56,16.3,6.01s3.62,12.35,3.62,12.35v.92s16.48,9.61,16.94,18.98c0,0,9.43,45.04,5.66,84.16,0,0-8.92,28.65-33.29,14.24,0,0-9.95-7.21-21.28-32.43l-1.83-1.79s-23.95,20.45-39.58-6.05l-26.86-.85s-13.84,28.93-39.56,8.76c0,0-9.69,9.35-18.64,28.06s-31.27,2.94-31.27,2.94c0,0-4.94-4.01-5.88-7.62s-2.81-18.04-2.54-21.91,2-66.15,7.35-69.42c0,0,3.61-10.22,14.7-16.1l1.87-1.6s.27-7.35,3.07-12.16,13.9-5.88,13.9-5.88c0,0,9.89-1.2,13.76,1.6s6.68,5.48,7.22,7.48,3.61,7.22,2.41,12.16l1.2-.24Z"/>
  <polygon class="cls-7" points="299.39 364.66 292.85 358.52 292.85 348.98 305.66 348.98 305.66 358.12 299.39 364.66"/>
  <rect class="cls-8" x="341.65" y="365.75" width="12.41" height="7.5"/>
  <polygon class="cls-6" points="386.36 373.25 386.36 365.75 397.27 370.25 386.36 373.25"/>
  <circle class="cls-11" cx="334.61" cy="409.06" r="15.17"/>
  <circle class="cls-11" cx="406.1" cy="409.06" r="15.17"/>
  <circle class="cls-9" cx="421.85" cy="369.5" r="7.83"/>
  <circle class="cls-10" cx="441.66" cy="352.4" r="7.83"/>
  <circle class="cls-12" cx="441.66" cy="386.8" r="7.83"/>
  <circle class="cls-5" cx="461.95" cy="369.5" r="7.83"/>
  <polygon class="cls-7" points="302.75 368.22 308.89 361.67 318.43 361.67 318.43 374.49 309.3 374.49 302.75 368.22"/>
  <polygon class="cls-7" points="299.12 372.53 305.66 378.67 305.66 388.21 292.85 388.21 292.85 379.08 299.12 372.53"/>
  <polygon class="cls-7" points="296.4 367.94 290.27 374.49 280.72 374.49 280.72 361.67 289.86 361.67 296.4 367.94"/>
  <text class="cls-4" transform="translate(210.41 154.35)"><tspan x="0" y="0">2</tspan></text>
  <text/>
  <text class="cls-1" transform="translate(87.71 259.71)"><tspan x="0" y="0" xml:space="preserve">   PLAYERS</tspan></text>
</svg>